<svg width="210" height="35" viewBox="0 0 210 35" fill="none" xmlns="http://www.w3.org/2000/svg">
<path d="M74.4691 8.15832V2.79842H59.3848L56.9015 20.6978L54.448 2.79842H49.0082L49.6161 7.57802C48.989 6.35302 46.763 2.79842 41.8614 2.79842C41.8288 2.79632 36.4151 2.79842 36.4151 2.79842L36.3925 28.8881L32.4285 2.79842L25.3033 2.79632L21.2018 29.8281L21.2041 2.79842H14.3838L11.9259 17.9828L9.53161 2.79842H2.71021V32.1865H8.08225V18.0213L10.5262 32.1865H13.3816L15.791 18.0213V32.1865H26.1465L26.7727 27.6663H30.9418L31.568 32.1865L41.7357 32.193H41.7431V32.1865H41.7558V22.6483L43.0008 22.4691L45.5812 32.193H50.8406L50.8385 32.1865H50.8534L47.4675 20.7923C49.1819 19.5359 51.1199 16.3509 50.6042 13.3026V13.3016C50.6105 13.3411 53.8011 32.2061 53.8011 32.2061L60.055 32.1869L64.3281 5.55135V32.1869H74.4687V26.9021H69.6562V20.1633H74.4687V14.7978H69.6562V8.15832H74.4691ZM27.4055 23.0072L28.8816 10.4419L30.411 23.0072H27.4055ZM43.0181 17.2051C42.6055 17.4016 42.1761 17.5 41.7558 17.501V8.0493C41.7623 8.0493 41.7722 8.04825 41.7827 8.04825C42.2016 8.0451 45.3385 8.1732 45.3385 12.7223C45.3385 15.102 44.2719 16.6028 43.0181 17.2051ZM85.2908 26.8972V32.18H75.3971V2.79422H80.725V26.8972H85.2908Z" fill="#FF1510"/>
<path d="M108.905 15.95C109.805 15.95 110.595 16.105 111.275 16.415C111.955 16.725 112.535 17.185 113.015 17.795L111.86 19.13C111.45 18.61 111 18.23 110.51 17.99C110.03 17.74 109.47 17.615 108.83 17.615C108.19 17.615 107.725 17.735 107.435 17.975C107.145 18.205 107 18.485 107 18.815C107 19.085 107.1 19.315 107.3 19.505C107.51 19.685 107.875 19.835 108.395 19.955L110.24 20.375C111.21 20.595 111.91 20.925 112.34 21.365C112.77 21.795 112.985 22.355 112.985 23.045C112.985 23.695 112.815 24.255 112.475 24.725C112.135 25.185 111.66 25.54 111.05 25.79C110.44 26.03 109.74 26.15 108.95 26.15C107.92 26.15 107.015 25.97 106.235 25.61C105.455 25.25 104.84 24.785 104.39 24.215L105.56 22.82C105.9 23.3 106.365 23.7 106.955 24.02C107.555 24.33 108.22 24.485 108.95 24.485C109.56 24.485 110.03 24.385 110.36 24.185C110.69 23.975 110.855 23.68 110.855 23.3C110.855 23.05 110.765 22.83 110.585 22.64C110.415 22.45 110.095 22.305 109.625 22.205L107.615 21.755C106.735 21.565 106.055 21.255 105.575 20.825C105.095 20.395 104.855 19.81 104.855 19.07C104.855 18.48 105.015 17.95 105.335 17.48C105.655 17.01 106.115 16.64 106.715 16.37C107.325 16.09 108.055 15.95 108.905 15.95ZM118.213 26.15C117.033 26.15 116.088 25.81 115.378 25.13C114.668 24.44 114.313 23.48 114.313 22.25C114.313 21.43 114.473 20.73 114.793 20.15C115.113 19.57 115.558 19.125 116.128 18.815C116.708 18.505 117.368 18.35 118.108 18.35C118.868 18.35 119.513 18.505 120.043 18.815C120.573 19.115 120.978 19.53 121.258 20.06C121.538 20.58 121.678 21.175 121.678 21.845C121.678 22.045 121.673 22.235 121.663 22.415C121.653 22.595 121.638 22.755 121.618 22.895H116.323C116.403 23.475 116.603 23.91 116.923 24.2C117.253 24.48 117.678 24.62 118.198 24.62C118.638 24.62 118.993 24.535 119.263 24.365C119.533 24.195 119.743 23.96 119.893 23.66L121.528 24.29C121.288 24.88 120.868 25.34 120.268 25.67C119.668 25.99 118.983 26.15 118.213 26.15ZM118.093 19.865C117.123 19.865 116.538 20.4 116.338 21.47H119.713C119.653 20.95 119.483 20.555 119.203 20.285C118.933 20.005 118.563 19.865 118.093 19.865ZM127.695 21.215C127.695 20.785 127.57 20.45 127.32 20.21C127.08 19.97 126.76 19.85 126.36 19.85C125.99 19.85 125.665 19.945 125.385 20.135C125.105 20.325 124.9 20.64 124.77 21.08L123.015 20.54C123.185 19.88 123.555 19.35 124.125 18.95C124.705 18.55 125.48 18.35 126.45 18.35C127.43 18.35 128.22 18.585 128.82 19.055C129.43 19.515 129.735 20.205 129.735 21.125V24.17C129.735 24.55 129.915 24.74 130.275 24.74C130.445 24.74 130.605 24.715 130.755 24.665L130.635 25.94C130.375 26.07 130.05 26.135 129.66 26.135C129.23 26.135 128.855 26.045 128.535 25.865C128.225 25.685 128.015 25.415 127.905 25.055C127.665 25.415 127.32 25.69 126.87 25.88C126.43 26.06 125.975 26.15 125.505 26.15C124.745 26.15 124.14 25.98 123.69 25.64C123.25 25.29 123.03 24.785 123.03 24.125C123.03 23.565 123.21 23.11 123.57 22.76C123.93 22.4 124.445 22.155 125.115 22.025L127.695 21.5V21.215ZM125.085 23.93C125.085 24.18 125.175 24.37 125.355 24.5C125.545 24.63 125.77 24.695 126.03 24.695C126.32 24.695 126.59 24.65 126.84 24.56C127.09 24.47 127.295 24.32 127.455 24.11C127.615 23.89 127.695 23.6 127.695 23.24V22.775L126.12 23.09C125.78 23.16 125.52 23.255 125.34 23.375C125.17 23.485 125.085 23.67 125.085 23.93ZM132.033 26V18.5H133.818L133.953 19.97C134.143 19.46 134.428 19.065 134.808 18.785C135.198 18.495 135.688 18.35 136.278 18.35C136.628 18.35 136.898 18.405 137.088 18.515L136.848 20.24C136.748 20.21 136.623 20.185 136.473 20.165C136.333 20.135 136.148 20.12 135.918 20.12C135.608 20.12 135.313 20.195 135.033 20.345C134.763 20.485 134.538 20.705 134.358 21.005C134.178 21.295 134.088 21.665 134.088 22.115V26H132.033ZM141.62 18.35C142.62 18.35 143.395 18.565 143.945 18.995C144.505 19.425 144.875 19.945 145.055 20.555L143.135 21.245C142.935 20.335 142.44 19.88 141.65 19.88C141.08 19.88 140.635 20.08 140.315 20.48C140.005 20.88 139.85 21.475 139.85 22.265C139.85 23.065 140.01 23.66 140.33 24.05C140.66 24.43 141.105 24.62 141.665 24.62C142.535 24.62 143.055 24.175 143.225 23.285L145.085 23.885C144.915 24.555 144.535 25.1 143.945 25.52C143.365 25.94 142.61 26.15 141.68 26.15C140.9 26.15 140.215 25.995 139.625 25.685C139.045 25.375 138.595 24.93 138.275 24.35C137.955 23.77 137.795 23.07 137.795 22.25C137.795 21.43 137.955 20.73 138.275 20.15C138.605 19.57 139.055 19.125 139.625 18.815C140.205 18.505 140.87 18.35 141.62 18.35ZM146.682 26V15.215H148.737V19.775C148.977 19.295 149.307 18.94 149.727 18.71C150.147 18.47 150.622 18.35 151.152 18.35C151.932 18.35 152.577 18.58 153.087 19.04C153.597 19.49 153.852 20.17 153.852 21.08V26H151.797V21.68C151.797 21.03 151.672 20.585 151.422 20.345C151.172 20.095 150.852 19.97 150.462 19.97C150.172 19.97 149.897 20.04 149.637 20.18C149.377 20.31 149.162 20.53 148.992 20.84C148.822 21.14 148.737 21.54 148.737 22.04V26H146.682ZM160.554 26V15.215H162.609V19.775C162.849 19.295 163.179 18.94 163.599 18.71C164.019 18.47 164.494 18.35 165.024 18.35C165.804 18.35 166.449 18.58 166.959 19.04C167.469 19.49 167.724 20.17 167.724 21.08V26H165.669V21.68C165.669 21.03 165.544 20.585 165.294 20.345C165.044 20.095 164.724 19.97 164.334 19.97C164.044 19.97 163.769 20.04 163.509 20.18C163.249 20.31 163.034 20.53 162.864 20.84C162.694 21.14 162.609 21.54 162.609 22.04V26H160.554ZM173.321 26.15C172.141 26.15 171.196 25.81 170.486 25.13C169.776 24.44 169.421 23.48 169.421 22.25C169.421 21.43 169.581 20.73 169.901 20.15C170.221 19.57 170.666 19.125 171.236 18.815C171.816 18.505 172.476 18.35 173.216 18.35C173.976 18.35 174.621 18.505 175.151 18.815C175.681 19.115 176.086 19.53 176.366 20.06C176.646 20.58 176.786 21.175 176.786 21.845C176.786 22.045 176.781 22.235 176.771 22.415C176.761 22.595 176.746 22.755 176.726 22.895H171.431C171.511 23.475 171.711 23.91 172.031 24.2C172.361 24.48 172.786 24.62 173.306 24.62C173.746 24.62 174.101 24.535 174.371 24.365C174.641 24.195 174.851 23.96 175.001 23.66L176.636 24.29C176.396 24.88 175.976 25.34 175.376 25.67C174.776 25.99 174.091 26.15 173.321 26.15ZM173.201 19.865C172.231 19.865 171.646 20.4 171.446 21.47H174.821C174.761 20.95 174.591 20.555 174.311 20.285C174.041 20.005 173.671 19.865 173.201 19.865ZM178.527 26V18.5H180.312L180.447 19.97C180.637 19.46 180.922 19.065 181.302 18.785C181.692 18.495 182.182 18.35 182.772 18.35C183.122 18.35 183.392 18.405 183.582 18.515L183.342 20.24C183.242 20.21 183.117 20.185 182.967 20.165C182.827 20.135 182.642 20.12 182.412 20.12C182.102 20.12 181.807 20.195 181.527 20.345C181.257 20.485 181.032 20.705 180.852 21.005C180.672 21.295 180.582 21.665 180.582 22.115V26H178.527ZM188.129 18.35C188.879 18.35 189.544 18.505 190.124 18.815C190.704 19.125 191.154 19.57 191.474 20.15C191.804 20.73 191.969 21.43 191.969 22.25C191.969 23.07 191.804 23.77 191.474 24.35C191.154 24.93 190.704 25.375 190.124 25.685C189.544 25.995 188.879 26.15 188.129 26.15C187.369 26.15 186.699 25.995 186.119 25.685C185.549 25.375 185.099 24.93 184.769 24.35C184.449 23.77 184.289 23.07 184.289 22.25C184.289 21.43 184.449 20.73 184.769 20.15C185.099 19.57 185.549 19.125 186.119 18.815C186.699 18.505 187.369 18.35 188.129 18.35ZM188.129 19.88C187.569 19.88 187.129 20.08 186.809 20.48C186.499 20.87 186.344 21.46 186.344 22.25C186.344 23.04 186.499 23.635 186.809 24.035C187.129 24.425 187.569 24.62 188.129 24.62C188.679 24.62 189.109 24.425 189.419 24.035C189.739 23.635 189.899 23.04 189.899 22.25C189.899 21.46 189.739 20.87 189.419 20.48C189.109 20.08 188.679 19.88 188.129 19.88ZM197.168 26.15C195.988 26.15 195.043 25.81 194.333 25.13C193.623 24.44 193.268 23.48 193.268 22.25C193.268 21.43 193.428 20.73 193.748 20.15C194.068 19.57 194.513 19.125 195.083 18.815C195.663 18.505 196.323 18.35 197.063 18.35C197.823 18.35 198.468 18.505 198.998 18.815C199.528 19.115 199.933 19.53 200.213 20.06C200.493 20.58 200.633 21.175 200.633 21.845C200.633 22.045 200.628 22.235 200.618 22.415C200.608 22.595 200.593 22.755 200.573 22.895H195.278C195.358 23.475 195.558 23.91 195.878 24.2C196.208 24.48 196.633 24.62 197.153 24.62C197.593 24.62 197.948 24.535 198.218 24.365C198.488 24.195 198.698 23.96 198.848 23.66L200.483 24.29C200.243 24.88 199.823 25.34 199.223 25.67C198.623 25.99 197.938 26.15 197.168 26.15ZM197.048 19.865C196.078 19.865 195.493 20.4 195.293 21.47H198.668C198.608 20.95 198.438 20.555 198.158 20.285C197.888 20.005 197.518 19.865 197.048 19.865ZM205.375 26.15C204.615 26.15 203.92 26.015 203.29 25.745C202.67 25.475 202.165 25.095 201.775 24.605L202.96 23.405C203.2 23.765 203.52 24.06 203.92 24.29C204.32 24.52 204.795 24.635 205.345 24.635C205.735 24.635 206.045 24.58 206.275 24.47C206.515 24.35 206.635 24.165 206.635 23.915C206.635 23.755 206.58 23.62 206.47 23.51C206.36 23.39 206.14 23.295 205.81 23.225L204.49 22.955C203.62 22.775 203 22.505 202.63 22.145C202.27 21.775 202.09 21.3 202.09 20.72C202.09 20.31 202.21 19.925 202.45 19.565C202.7 19.205 203.07 18.915 203.56 18.695C204.05 18.465 204.66 18.35 205.39 18.35C206.91 18.35 208 18.815 208.66 19.745L207.43 20.945C207.21 20.595 206.92 20.33 206.56 20.15C206.21 19.96 205.84 19.865 205.45 19.865C204.57 19.865 204.13 20.11 204.13 20.6C204.13 20.76 204.2 20.9 204.34 21.02C204.48 21.13 204.735 21.225 205.105 21.305L206.635 21.62C207.375 21.77 207.905 22.025 208.225 22.385C208.545 22.735 208.705 23.16 208.705 23.66C208.705 24.38 208.415 24.975 207.835 25.445C207.265 25.915 206.445 26.15 205.375 26.15Z" fill="#404040"/>
</svg>
