<svg width="30" height="31" viewBox="0 0 30 31" fill="none" xmlns="http://www.w3.org/2000/svg">
<g clip-path="url(#clip0)">
<path d="M11.2707 0C9.36068 7.04545 6.68663 8.80682 0.192505 10.9205V15.8523L13.9448 31V26.4205C19.6749 24.6591 23.1129 20.7841 25.405 16.2045L11.2707 0ZM14.3268 31C21.5849 29.2386 26.551 27.4773 28.843 26.4205V22.5564C25.3096 25.1533 18.5736 28.7946 14.3268 30.2955V31ZM15.0908 1.76136L14.3745 2.42187L26.0019 15.7532C26.1784 15.957 26.2169 16.2544 26.0974 16.4908C23.7699 21.1411 20.2088 25.2728 14.3268 27.125L14.3387 27.9176C20.4508 26.5085 25.0229 21.4886 29.225 16.9091L15.0908 1.76136H15.0908ZM12.2257 5.16299L15.2818 8.33345C15.4752 8.53687 15.524 8.84734 15.4011 9.09303C13.8198 12.3741 11.7308 14.3136 8.56083 15.7752C8.26084 15.9148 7.86289 15.8433 7.64164 15.6101L4.20358 12.0874C3.86254 11.7336 4.06877 11.0743 4.56171 10.9425C8.25646 9.92032 9.4595 8.80465 10.9484 5.37216C11.3929 4.83779 11.6645 4.822 12.2257 5.16299ZM11.8318 6.88032C10.5286 9.43499 8.87088 10.9251 6.0778 11.9002L8.36984 14.245C10.853 13.0099 12.4553 11.5117 13.7896 8.9169L11.8318 6.88032ZM28.1865 19.1218C24.6507 22.9051 19.4006 27.3455 14.3268 28.8864V29.5909C20.0569 28.1818 25.405 24.3068 29.9891 20.7841L28.1865 19.1218Z" fill="#FF0000"/>
</g>
<defs>
<clipPath id="clip0">
<rect width="29.7966" height="31" fill="white" transform="translate(0.192505)"/>
</clipPath>
</defs>
</svg>
