<svg width="18" height="27" viewBox="0 0 18 27" fill="none" xmlns="http://www.w3.org/2000/svg">
<path d="M8.7752 5.3984C10.2659 5.3984 11.4744 4.18993 11.4744 2.6992C11.4744 1.20847 10.2659 0 8.7752 0C7.28447 0 6.076 1.20847 6.076 2.6992C6.076 4.18993 7.28447 5.3984 8.7752 5.3984Z" fill="#FF0000"/>
<path d="M5.1296 14.9744C4.52213 15.1992 3.84188 15.0978 3.3264 14.7056C2.97046 14.434 2.63192 14.1404 2.3128 13.8264L0 21.28C0 21.28 1.1872 21.4144 2.9512 21.5768L5.1296 14.9744Z" fill="#FF0000"/>
<path d="M11.5808 14.756C11.5637 14.7025 11.5431 14.6501 11.5192 14.5992C11.8832 12.5832 12.2864 10.5448 12.7232 8.5176C13.4904 9.0048 13.9552 9.548 13.9944 10.024C14.0504 10.6232 13.4736 11.4128 12.3704 12.264C11.9574 12.5748 11.7901 13.1153 11.9555 13.605C12.1208 14.0947 12.5815 14.4232 13.0984 14.42C13.3616 14.4204 13.6176 14.3338 13.8264 14.1736C15.6576 12.7736 16.52 11.312 16.3912 9.8224C16.2778 8.85252 15.8065 7.95987 15.0696 7.3192C14.5243 6.81832 13.9117 6.3961 13.2496 6.0648C13.1422 6.01126 13.0268 5.97533 12.908 5.9584C12.7915 5.91593 12.6678 5.8969 12.544 5.9024H5.0064C4.88037 5.89869 4.75482 5.91961 4.6368 5.964C4.52524 5.98154 4.41737 6.01749 4.3176 6.0704C3.65454 6.39784 3.04168 6.81836 2.4976 7.3192C1.76274 7.96078 1.29351 8.85332 1.1816 9.8224C1.0472 11.312 1.9096 12.7736 3.7408 14.1736C4.26742 14.5725 5.01709 14.4725 5.4208 13.9496C5.81844 13.4215 5.71595 12.6716 5.1912 12.2696C4.0712 11.4296 3.5112 10.64 3.5672 10.0296C3.6064 9.5592 4.0656 9.016 4.8272 8.5288C5.2528 10.5224 5.6504 12.5272 6.0144 14.5096C5.98677 14.566 5.96247 14.624 5.9416 14.6832L2.6152 24.7632C2.48613 25.1531 2.51752 25.5782 2.70243 25.9449C2.88735 26.3116 3.21059 26.5896 3.6008 26.7176C3.75766 26.7708 3.92235 26.7973 4.088 26.796C4.75116 26.8008 5.34456 26.385 5.5664 25.76L8.7528 16.072L11.9672 25.816C12.1758 26.4522 12.7704 26.8818 13.44 26.88C13.6054 26.8786 13.7697 26.8521 13.9272 26.8016C14.3174 26.6736 14.6407 26.3956 14.8256 26.0289C15.0105 25.6622 15.0419 25.2371 14.9128 24.8472L11.5808 14.756ZM10.08 11.4744L8.7864 10.808L7.5152 11.4744L7.756 10.08L6.72 9.0608L8.1368 8.8536L8.7752 7.5656L9.408 8.8536L10.8248 9.0608L9.8112 10.08L10.08 11.4744Z" fill="#FF0000"/>
<path d="M7.5432 21.9184C8.35707 21.9632 9.17467 21.9968 9.996 22.0192L8.7528 18.2504L7.5432 21.9184Z" fill="#FF0000"/>
<path d="M14.2408 14.7056C13.919 14.952 13.5261 15.0876 13.1208 15.092C12.869 15.0924 12.6197 15.043 12.3872 14.9464L14.672 21.952C15.7856 21.9198 16.885 21.6923 17.92 21.28L15.4 13.6808C15.0377 14.0487 14.6504 14.3911 14.2408 14.7056Z" fill="#FF0000"/>
</svg>
