<svg width="30" height="30" viewBox="0 0 30 30" fill="none" xmlns="http://www.w3.org/2000/svg">
<path d="M29.5015 27.1605L22.1441 19.7943C25.8434 14.9795 25.4734 8.02473 21.0343 3.62144C18.6093 1.19346 15.4855 0 12.3206 0C9.15564 0 6.03183 1.19346 3.60677 3.62144C-1.20226 8.43626 -1.20226 16.2551 3.60677 21.0699C6.03183 23.4979 9.15564 24.6914 12.3206 24.6914C14.9511 24.6914 17.5817 23.8684 19.7602 22.1811L27.1586 29.5062C27.4875 29.8354 27.8985 30 28.3506 30C28.7617 30 29.2138 29.8354 29.5426 29.5062C30.1592 28.8889 30.1592 27.819 29.5015 27.1605ZM12.0783 20.8334C9.71968 20.8334 7.56092 19.9144 5.88188 18.2762C2.48382 14.8801 2.48382 9.32648 5.88188 5.89041C7.52094 4.25228 9.71968 3.33329 12.0783 3.33329C14.437 3.33329 16.5958 4.25228 18.2748 5.89041C19.9538 7.52853 20.8333 9.72602 20.8333 12.0833C20.8333 14.4406 19.9139 16.5982 18.2748 18.2762C16.6357 19.9543 14.397 20.8334 12.0783 20.8334Z" fill="#FF0000"/>
</svg>
