<svg width="33" height="23" viewBox="0 0 33 23" fill="none" xmlns="http://www.w3.org/2000/svg">
<g clip-path="url(#clip0)">
<path d="M30.1021 0H3.25325C2.58012 0 1.93455 0.25859 1.45858 0.718872C0.982606 1.17915 0.71521 1.80341 0.71521 2.45435V20.5457C0.71521 21.9012 1.85153 23 3.25325 23H30.1021C31.5038 23 32.6401 21.9012 32.6401 20.5457V2.45435C32.6401 1.09884 31.5038 0 30.1021 0ZM6.03041 18.6136C6.03041 18.827 5.8489 19 5.62501 19H2.18477C1.96087 19 1.77937 18.827 1.77937 18.6136V16.3864C1.77937 16.173 1.96087 16 2.18477 16H5.63063C5.85452 16 6.03602 16.173 6.03602 16.3864L6.03041 18.6136ZM6.03041 12.6136C6.03041 12.827 5.8489 13 5.62501 13H2.18477C1.96087 13 1.77937 12.827 1.77937 12.6136V10.3864C1.77937 10.173 1.96087 10 2.18477 10H5.63063C5.85452 10 6.03602 10.173 6.03602 10.3864L6.03041 12.6136ZM6.03041 6.61292C6.03041 6.8267 5.8489 7 5.62501 7H2.18477C1.96087 7 1.77937 6.8267 1.77937 6.61292V4.37634C1.78547 4.16677 1.9652 3.99992 2.18477 4H5.63063C5.85452 4 6.03602 4.1733 6.03602 4.38708L6.03041 6.61292ZM20.4767 12.8192L13.8444 16.863C13.5541 17.0409 13.1921 17.0459 12.8971 16.8762C12.6022 16.7064 12.4202 16.3883 12.421 16.0439V7.95612C12.4202 7.61169 12.6022 7.29357 12.8971 7.12384C13.1921 6.95411 13.5541 6.95913 13.8444 7.13696L20.4767 11.1808C20.7605 11.353 20.9343 11.6641 20.9343 12C20.9343 12.3359 20.7605 12.647 20.4767 12.8192ZM31.5759 18.6136C31.5759 18.827 31.3942 19 31.17 19H27.7252C27.501 19 27.3193 18.827 27.3193 18.6136V16.3864C27.3193 16.173 27.501 16 27.7252 16H31.17C31.3942 16 31.5759 16.173 31.5759 16.3864V18.6136ZM31.5759 12.6136C31.5759 12.827 31.3942 13 31.17 13H27.7252C27.501 13 27.3193 12.827 27.3193 12.6136V10.3864C27.3193 10.173 27.501 10 27.7252 10H31.17C31.3942 10 31.5759 10.173 31.5759 10.3864V12.6136ZM31.5759 6.61426C31.5759 6.82728 31.3942 7 31.17 7H27.7252C27.501 7 27.3193 6.82728 27.3193 6.61426V4.38574C27.3193 4.17272 27.501 4 27.7252 4H31.17C31.3942 4 31.5759 4.17272 31.5759 4.38574V6.61426Z" fill="#FF0000"/>
</g>
<defs>
<clipPath id="clip0">
<rect width="31.9249" height="23" fill="white" transform="translate(0.71521)"/>
</clipPath>
</defs>
</svg>
